<svg width="41" height="41" viewBox="0 0 41 41" fill="none" xmlns="http://www.w3.org/2000/svg">
<path d="M21.5364 9.12826H35.8464C36.2884 9.12826 36.7123 9.30385 37.0249 9.61641C37.3374 9.92897 37.513 10.3529 37.513 10.7949V34.1283C37.513 34.5703 37.3374 34.9942 37.0249 35.3068C36.7123 35.6193 36.2884 35.7949 35.8464 35.7949H5.84635C5.40433 35.7949 4.9804 35.6193 4.66784 35.3068C4.35528 34.9942 4.17969 34.5703 4.17969 34.1283V7.46159C4.17969 7.01956 4.35528 6.59564 4.66784 6.28308C4.9804 5.97052 5.40433 5.79492 5.84635 5.79492H18.203L21.5364 9.12826ZM7.51302 9.12826V32.4616H34.1797V12.4616H20.1564L16.823 9.12826H7.51302ZM19.1797 15.7949H22.513V29.1283H19.1797V15.7949ZM25.8464 20.7949H29.1797V29.1283H25.8464V20.7949ZM12.513 24.1283H15.8464V29.1283H12.513V24.1283Z" fill="white"/>
</svg>
