<svg width="36" height="37" viewBox="0 0 36 37" fill="none" xmlns="http://www.w3.org/2000/svg">
<path d="M16.0884 2.11719L4.83398 5.58219L2.77734 13.3036L6.1193 11.8115L6.85336 11.4842L7.02914 12.2686L7.64437 15.0195L8.09473 17.0255L6.56543 15.6523L5.46012 14.6592L3.47604 16.9334L13.366 26.4959L14.0449 23.6349L14.5744 21.3937L15.3061 23.5778L19.1536 35.0804L30.3991 33.2305L33.6159 18.9614L27.6701 8.50466L16.0884 2.11719ZM12.0322 5.62402L10.0766 8.42991L9.84811 13.5937L7.93652 7.34007L12.0322 5.62402ZM13.2869 12.1916L21.2409 23.1076L28.6172 25.4896L21.0674 25.4302L13.2869 16.4302V12.1918V12.1916ZM5.57662 23.7207L15.4292 34.4873L15.038 29.8555L5.57662 23.7207Z" fill="white"/>
</svg>
