<svg width="41" height="41" viewBox="0 0 41 41" fill="none" xmlns="http://www.w3.org/2000/svg">
<path d="M17.738 35.7949L17.1347 30.9749C16.6025 30.8138 16.0275 30.5616 15.4097 30.2183C14.7908 29.8738 14.2641 29.5049 13.8297 29.1116L9.3847 31.0033L6.27637 25.5866L10.118 22.6899C10.0691 22.3877 10.0286 22.0766 9.99637 21.7566C9.96526 21.4377 9.9497 21.1277 9.9497 20.8266C9.9497 20.5466 9.96526 20.2521 9.99637 19.9433C10.0275 19.6344 10.068 19.2866 10.118 18.8999L6.27637 16.0033L9.3847 10.6499L13.798 12.5116C14.2958 12.0971 14.8347 11.7233 15.4147 11.3899C15.9925 11.0566 16.5553 10.7988 17.103 10.6166L17.7364 5.79492H23.9547L24.558 10.6483C25.1969 10.8716 25.7614 11.1288 26.2514 11.4199C26.7425 11.711 27.2475 12.0744 27.7664 12.5099L32.308 10.6499L35.4164 16.0033L31.4464 18.9966C31.5375 19.341 31.5886 19.6566 31.5997 19.9433C31.6108 20.2321 31.6164 20.516 31.6164 20.7949C31.6164 21.0538 31.6053 21.3266 31.583 21.6133C31.5619 21.901 31.513 22.2488 31.4364 22.6566L35.343 25.5866L32.2347 31.0033L27.7664 29.0799C27.2475 29.5155 26.7253 29.8894 26.1997 30.2016C25.673 30.5138 25.1258 30.7605 24.558 30.9416L23.9547 35.7949H17.738ZM20.8014 24.9616C21.9636 24.9616 22.9486 24.5577 23.7564 23.7499C24.5641 22.9421 24.968 21.9571 24.968 20.7949C24.968 19.6327 24.5641 18.6477 23.7564 17.8399C22.9486 17.0321 21.9636 16.6283 20.8014 16.6283C19.6325 16.6283 18.6458 17.0321 17.8414 17.8399C17.0369 18.6477 16.6347 19.6327 16.6347 20.7949C16.6347 21.9571 17.0369 22.9421 17.8414 23.7499C18.6458 24.5577 19.6325 24.9616 20.8014 24.9616Z" fill="white"/>
</svg>
