<svg width="36" height="37" viewBox="0 0 36 37" fill="none" xmlns="http://www.w3.org/2000/svg">
<path d="M15.675 23.8076C16.275 24.4076 17.05 24.7016 18 24.6896C18.95 24.6776 19.65 24.3336 20.1 23.6576L28.5 11.0576L15.9 19.4576C15.225 19.9076 14.869 20.5951 14.832 21.5201C14.795 22.4451 15.076 23.2076 15.675 23.8076ZM18 6.55762C19.475 6.55762 20.894 6.76412 22.257 7.17712C23.62 7.59012 24.901 8.20862 26.1 9.03262L23.25 10.8326C22.425 10.4076 21.569 10.0891 20.682 9.87712C19.795 9.66512 18.901 9.55862 18 9.55762C14.675 9.55762 11.8435 10.7261 9.5055 13.0631C7.1675 15.4001 5.999 18.2316 6 21.5576C6 22.6076 6.144 23.6451 6.432 24.6701C6.72 25.6951 7.126 26.6576 7.65 27.5576H28.35C28.925 26.6076 29.344 25.6201 29.607 24.5951C29.87 23.5701 30.001 22.5076 30 21.4076C30 20.5076 29.8935 19.6326 29.6805 18.7826C29.4675 17.9326 29.149 17.1076 28.725 16.3076L30.525 13.4576C31.275 14.6326 31.869 15.8826 32.307 17.2076C32.745 18.5326 32.976 19.9076 33 21.3326C33.025 22.7576 32.8625 24.1201 32.5125 25.4201C32.1625 26.7201 31.65 27.9576 30.975 29.1326C30.7 29.5826 30.325 29.9326 29.85 30.1826C29.375 30.4326 28.875 30.5576 28.35 30.5576H7.65C7.125 30.5576 6.625 30.4326 6.15 30.1826C5.675 29.9326 5.3 29.5826 5.025 29.1326C4.375 28.0076 3.875 26.8136 3.525 25.5506C3.175 24.2876 3 22.9566 3 21.5576C3 19.4826 3.394 17.5386 4.182 15.7256C4.97 13.9126 6.045 12.3256 7.407 10.9646C8.769 9.60162 10.362 8.52612 12.186 7.73812C14.01 6.95012 15.948 6.55662 18 6.55762Z" fill="white"/>
</svg>
