<svg width="36" height="37" viewBox="0 0 36 37" fill="none" xmlns="http://www.w3.org/2000/svg">
<path d="M18 33.5293C15.925 33.5293 13.975 33.1353 12.15 32.3473C10.325 31.5593 8.7375 30.4908 7.3875 29.1418C6.0375 27.7918 4.969 26.2043 4.182 24.3793C3.395 22.5543 3.001 20.6043 3 18.5293C3 16.4543 3.394 14.5043 4.182 12.6793C4.97 10.8543 6.0385 9.2668 7.3875 7.9168C8.7375 6.5668 10.325 5.4983 12.15 4.7113C13.975 3.9243 15.925 3.5303 18 3.5293C20.075 3.5293 22.025 3.9233 23.85 4.7113C25.675 5.4993 27.2625 6.5678 28.6125 7.9168C29.9625 9.2668 31.0315 10.8543 31.8195 12.6793C32.6075 14.5043 33.001 16.4543 33 18.5293C33 20.6043 32.606 22.5543 31.818 24.3793C31.03 26.2043 29.9615 27.7918 28.6125 29.1418C27.2625 30.4918 25.675 31.5608 23.85 32.3488C22.025 33.1368 20.075 33.5303 18 33.5293ZM18 30.5293C21.35 30.5293 24.1875 29.3668 26.5125 27.0418C28.8375 24.7168 30 21.8793 30 18.5293C30 15.1793 28.8375 12.3418 26.5125 10.0168C24.1875 7.6918 21.35 6.5293 18 6.5293C14.65 6.5293 11.8125 7.6918 9.4875 10.0168C7.1625 12.3418 6 15.1793 6 18.5293C6 21.8793 7.1625 24.7168 9.4875 27.0418C11.8125 29.3668 14.65 30.5293 18 30.5293ZM18 27.5293C15.5 27.5293 13.375 26.6543 11.625 24.9043C9.875 23.1543 9 21.0293 9 18.5293C9 16.0293 9.875 13.9043 11.625 12.1543C13.375 10.4043 15.5 9.5293 18 9.5293C20.5 9.5293 22.625 10.4043 24.375 12.1543C26.125 13.9043 27 16.0293 27 18.5293C27 21.0293 26.125 23.1543 24.375 24.9043C22.625 26.6543 20.5 27.5293 18 27.5293ZM18 24.5293C19.65 24.5293 21.0625 23.9418 22.2375 22.7668C23.4125 21.5918 24 20.1793 24 18.5293C24 16.8793 23.4125 15.4668 22.2375 14.2918C21.0625 13.1168 19.65 12.5293 18 12.5293C16.35 12.5293 14.9375 13.1168 13.7625 14.2918C12.5875 15.4668 12 16.8793 12 18.5293C12 20.1793 12.5875 21.5918 13.7625 22.7668C14.9375 23.9418 16.35 24.5293 18 24.5293ZM18 21.5293C17.175 21.5293 16.4685 21.2353 15.8805 20.6473C15.2925 20.0593 14.999 19.3533 15 18.5293C15 17.7043 15.294 16.9978 15.882 16.4098C16.47 15.8218 17.176 15.5283 18 15.5293C18.825 15.5293 19.5315 15.8233 20.1195 16.4113C20.7075 16.9993 21.001 17.7053 21 18.5293C21 19.3543 20.706 20.0608 20.118 20.6488C19.53 21.2368 18.824 21.5303 18 21.5293Z" fill="white"/>
</svg>
